<svg xmlns="http://www.w3.org/2000/svg" width="2.17in" height="1.19in" viewBox="0 0 156.41 85.48"><title>orise-primary-centered-red-w-tag</title><path d="M1,64.67c0-1.37,0-1.61,0-1.89s-.07-.45-.37-.49l-.32,0a.09.09,0,0,1-.07-.08s0-.07.15-.07l1,0H3.78a2,2,0,0,0,.42,0s.09-.05.12-.05.06,0,.06.08,0,.17-.07.42c0,.08,0,.47,0,.58s0,.09-.09.09-.07,0-.07-.1A1,1,0,0,0,4,62.79a.67.67,0,0,0-.62-.26l-1.5,0s-.07,0-.07.09V65s0,.08.06.08H3.56c.22,0,.34,0,.43-.16s.08-.09.11-.09.05,0,.05.07a3.77,3.77,0,0,0-.08.49c0,.18,0,.53,0,.59s0,.18-.08.18-.07,0-.07-.09a1.37,1.37,0,0,0-.06-.32c0-.12-.18-.24-.46-.28s-1.31,0-1.47,0-.06,0-.06.09v.7c0,.87,0,1.57,0,1.91s.08.43.33.47l.42,0a.07.07,0,0,1,.07.07s0,.07-.14.07c-.51,0-1.1,0-1.15,0l-.9,0c-.09,0-.14,0-.14-.07a.07.07,0,0,1,.07-.07,2.7,2.7,0,0,0,.28,0c.18,0,.2-.21.24-.47A18.68,18.68,0,0,0,1,66.23Z"/><path d="M9,62a3.3,3.3,0,0,1,3.61,3.31A3.53,3.53,0,0,1,9,68.91a3.39,3.39,0,0,1-3.57-3.47A3.49,3.49,0,0,1,9,62Zm.21,6.54c.82,0,2.47-.43,2.47-3,0-2.12-1.29-3.23-2.73-3.23s-2.63,1-2.63,2.87S7.57,68.54,9.22,68.54Z"/><path d="M14.39,64.67c0-1.37,0-1.61,0-1.89s-.07-.45-.37-.49l-.31,0a.1.1,0,0,1-.08-.08s.05-.07.15-.07l1.08,0,1.14,0a2.93,2.93,0,0,1,1.7.39,1.53,1.53,0,0,1,.63,1.2,2.57,2.57,0,0,1-1.12,2c.75.94,1.38,1.73,1.91,2.28a1.69,1.69,0,0,0,1,.62,1.76,1.76,0,0,0,.32,0,.08.08,0,0,1,.08.07s-.05.07-.21.07h-.57a1.92,1.92,0,0,1-1-.17,4.86,4.86,0,0,1-1.25-1.3c-.38-.48-.78-1-1-1.29a.14.14,0,0,0-.13,0l-1.16,0s-.06,0-.06.07v.21c0,.85,0,1.54,0,1.9s.08.43.36.47l.41,0a.06.06,0,0,1,.07.07s0,.07-.14.07c-.5,0-1.08,0-1.12,0l-.91,0c-.09,0-.14,0-.14-.07a.07.07,0,0,1,.07-.07,1.35,1.35,0,0,0,.28,0c.18,0,.2-.21.24-.47a18.68,18.68,0,0,0,.05-1.91Zm.79.75a.16.16,0,0,0,.06.12,3.23,3.23,0,0,0,1,.13,1.12,1.12,0,0,0,.68-.16,1.8,1.8,0,0,0-1-3.08,3.13,3.13,0,0,0-.66.06.11.11,0,0,0-.07.1Z"/><path d="M24,68.66c-.15-.07-.16-.12-.16-.4,0-.51,0-.93.05-1.1S24,67,24,67s.07,0,.07.11a1.94,1.94,0,0,0,0,.39,1.42,1.42,0,0,0,1.54,1,1.38,1.38,0,0,0,1.48-1.38c0-.71-.3-1.13-1.19-1.86l-.47-.39c-1.1-.9-1.35-1.54-1.35-2.25a1.9,1.9,0,0,1,2.15-1.87,4,4,0,0,1,1,.11,1.77,1.77,0,0,0,.37.05c.08,0,.1,0,.1.07s0,.4,0,1.1c0,.17,0,.24-.07.24s-.08,0-.09-.13a1.8,1.8,0,0,0-.13-.52c-.06-.12-.34-.55-1.3-.55a1.17,1.17,0,0,0-1.27,1.2c0,.59.27,1,1.26,1.74l.29.23c1.23,1,1.52,1.61,1.52,2.44A2.16,2.16,0,0,1,27,68.5a2.76,2.76,0,0,1-1.57.44A3.09,3.09,0,0,1,24,68.66Z"/><path d="M30.31,68a3.3,3.3,0,0,1-1.11-2.61,3.5,3.5,0,0,1,1-2.41A3.76,3.76,0,0,1,33,62a9.28,9.28,0,0,1,1.33.1,6.78,6.78,0,0,0,.93.14c.1,0,.12,0,.12.09s0,.18,0,.5,0,.78,0,.9-.06.19-.11.19-.07-.07-.07-.19a1.16,1.16,0,0,0-.38-.88,3,3,0,0,0-1.8-.49,2.8,2.8,0,0,0-2,.61,2.88,2.88,0,0,0-.82,2.31,3.2,3.2,0,0,0,3.29,3.19,1.93,1.93,0,0,0,1.5-.41,1.6,1.6,0,0,0,.35-.74c0-.09,0-.12.1-.12s.08.06.08.12a10.13,10.13,0,0,1-.22,1.13c-.05.17-.07.2-.23.26a5.2,5.2,0,0,1-1.65.2A4.28,4.28,0,0,1,30.31,68Z"/><path d="M38.28,66.23c0,.85,0,1.55,0,1.91s.06.43.33.47l.42,0a.07.07,0,0,1,.07.07s0,.07-.14.07c-.51,0-1.1,0-1.14,0l-.91,0c-.09,0-.14,0-.14-.07a.07.07,0,0,1,.07-.07,1.35,1.35,0,0,0,.28,0c.18,0,.21-.21.24-.47s.05-1.06.05-1.91V64.67c0-1.37,0-1.61,0-1.89s-.09-.44-.29-.48l-.28,0a.08.08,0,0,1-.07-.08s0-.07.14-.07l.93,0,.91,0c.1,0,.14,0,.14.07a.09.09,0,0,1-.07.08,1.11,1.11,0,0,0-.23,0c-.25.05-.3.17-.32.49s0,.52,0,1.89Z"/><path d="M41.14,64.67c0-1.37,0-1.61,0-1.89s-.07-.45-.37-.49l-.31,0a.09.09,0,0,1-.07-.08s0-.07.14-.07l1.06,0h2.18c.17,0,.34,0,.41,0a.93.93,0,0,1,.13,0s0,0,0,.08,0,.17-.07.42c0,.08,0,.47,0,.58s-.05.09-.09.09-.07,0-.07-.11a1,1,0,0,0,0-.31c-.06-.15-.16-.21-.66-.27-.15,0-1.21,0-1.31,0s-.06,0-.06.09V65c0,.06,0,.09.06.09s1.31,0,1.52,0,.35,0,.45-.13.1-.11.13-.11,0,0,0,.07,0,.2-.07.49,0,.51,0,.57,0,.17-.08.17-.07,0-.07-.09a.83.83,0,0,0,0-.29c0-.12-.11-.23-.46-.27s-1.23,0-1.38,0-.07,0-.07.06v.74c0,.3,0,1.33,0,1.51,0,.59.19.7,1.09.7a3.2,3.2,0,0,0,.92-.09.67.67,0,0,0,.41-.61c0-.11,0-.14.1-.14s.06.07.06.14a6.13,6.13,0,0,1-.13.85c-.06.22-.15.22-.5.22-.69,0-1.22,0-1.59,0l-.76,0h-.39l-.53,0c-.1,0-.15,0-.15-.07a.07.07,0,0,1,.07-.07,2.36,2.36,0,0,0,.28,0c.18,0,.2-.21.24-.47a18.68,18.68,0,0,0,0-1.91Z"/><path d="M47.11,67.59c0,.73.1.94.35,1a2.33,2.33,0,0,0,.46.05.07.07,0,0,1,.07.07s-.06.07-.16.07c-.52,0-.89,0-1,0s-.47,0-.88,0c-.1,0-.15,0-.15-.07a.07.07,0,0,1,.08-.07,1.51,1.51,0,0,0,.37-.05c.23-.07.26-.3.26-1.1V62.44c0-.35.05-.44.12-.44s.26.17.36.27,1.47,1.55,2.88,3c.9.93,1.88,2,2.16,2.27L52,63.13c0-.57-.07-.77-.35-.82a2.93,2.93,0,0,0-.44,0c-.07,0-.08-.05-.08-.09s.08-.06.18-.06l1,0,.77,0c.1,0,.17,0,.17.06a.1.1,0,0,1-.1.09,1,1,0,0,0-.22,0c-.3.06-.32.24-.32.77l0,5.16c0,.58,0,.64-.08.64s-.18-.08-.69-.54c-.1-.09-1.41-1.38-2.38-2.39s-2.08-2.19-2.36-2.5Z"/><path d="M55.16,68a3.3,3.3,0,0,1-1.11-2.61,3.5,3.5,0,0,1,1-2.41A3.75,3.75,0,0,1,57.86,62a9.15,9.15,0,0,1,1.32.1,7.15,7.15,0,0,0,.94.14c.09,0,.11,0,.11.09s0,.18,0,.5,0,.78,0,.9-.05.19-.1.19-.08-.07-.08-.19a1.13,1.13,0,0,0-.38-.88,3,3,0,0,0-1.8-.49,2.8,2.8,0,0,0-2.05.61,2.91,2.91,0,0,0-.82,2.31,3.2,3.2,0,0,0,3.29,3.19,1.92,1.92,0,0,0,1.5-.41,1.63,1.63,0,0,0,.36-.74c0-.09,0-.12.09-.12s.08.06.08.12a9.61,9.61,0,0,1-.21,1.13c-.06.17-.08.2-.23.26a5.28,5.28,0,0,1-1.65.2A4.26,4.26,0,0,1,55.16,68Z"/><path d="M62.3,64.67c0-1.37,0-1.61,0-1.89s-.08-.45-.38-.49l-.31,0a.09.09,0,0,1-.07-.08s0-.07.14-.07l1.06,0H64.9c.18,0,.34,0,.42,0a.56.56,0,0,1,.12,0s0,0,0,.08,0,.17-.07.42c0,.08,0,.47,0,.58s0,.09-.09.09-.07,0-.07-.11a1,1,0,0,0,0-.31c-.06-.15-.16-.21-.65-.27-.16,0-1.22,0-1.32,0s0,0,0,.09V65c0,.06,0,.09,0,.09s1.32,0,1.52,0,.36,0,.45-.13.1-.11.13-.11.06,0,.06.07a3.77,3.77,0,0,0-.08.49c0,.18,0,.51,0,.57s0,.17-.08.17-.06,0-.06-.09a.83.83,0,0,0,0-.29c0-.12-.12-.23-.47-.27s-1.23,0-1.38,0a.05.05,0,0,0-.06.06v.74c0,.3,0,1.33,0,1.51,0,.59.18.7,1.09.7a3.16,3.16,0,0,0,.91-.09.67.67,0,0,0,.41-.61c0-.11,0-.14.1-.14s.06.07.06.14a6.13,6.13,0,0,1-.13.85c-.06.22-.15.22-.5.22-.69,0-1.22,0-1.59,0l-.76,0h-.39l-.53,0c-.1,0-.15,0-.15-.07a.07.07,0,0,1,.08-.07,2.51,2.51,0,0,0,.27,0c.18,0,.2-.21.24-.47a15.58,15.58,0,0,0,.06-1.91Z"/><path d="M72.5,62.3c.12-.29.16-.34.22-.34s.13.12.22.32c.17.37,1.63,4,2.19,5.35.33.79.58.9.78,1a1.29,1.29,0,0,0,.36.05s.11,0,.11.07-.1.07-.2.07-.81,0-1.45,0c-.17,0-.32,0-.32-.06s0,0,.06-.06a.17.17,0,0,0,.09-.24l-.82-2s0-.06-.08-.06H71.55s-.07,0-.09.08l-.52,1.41a1.66,1.66,0,0,0-.14.59c0,.18.16.24.31.24h.09c.07,0,.09,0,.09.07s-.05.07-.14.07l-.82,0c-.09,0-.54,0-.92,0-.11,0-.17,0-.17-.07a.08.08,0,0,1,.08-.07l.27,0c.41,0,.59-.37.77-.81Zm1,3.67s0,0,0-.06l-.9-2.42c-.05-.13-.11-.13-.16,0l-.85,2.42s0,.06,0,.06Z"/><path d="M77.83,67.59c0,.73.11.94.36,1a2.17,2.17,0,0,0,.45.05.07.07,0,0,1,.08.07s-.07.07-.17.07c-.52,0-.88,0-1,0s-.47,0-.89,0c-.09,0-.14,0-.14-.07a.07.07,0,0,1,.07-.07A1.45,1.45,0,0,0,77,68.6c.23-.07.26-.3.26-1.1V62.44c0-.35.06-.44.13-.44s.26.17.35.27,1.47,1.55,2.89,3c.9.93,1.87,2,2.15,2.27l-.09-4.42c0-.57-.06-.77-.34-.82a3.15,3.15,0,0,0-.45,0c-.06,0-.07-.05-.07-.09s.07-.06.18-.06l.95,0,.78,0c.09,0,.17,0,.17.06a.11.11,0,0,1-.11.09l-.22,0c-.3.06-.32.24-.32.77l0,5.16c0,.58,0,.64-.07.64s-.19-.08-.7-.54c-.09-.09-1.41-1.38-2.37-2.39s-2.09-2.19-2.37-2.5Z"/><path d="M85.75,64.67c0-1.37,0-1.61,0-1.89s-.07-.45-.37-.49l-.32,0a.09.09,0,0,1-.07-.08s0-.07.15-.07l1,0,1.23,0c.91,0,2.58-.08,3.66,1a3.07,3.07,0,0,1,.9,2.24,3.53,3.53,0,0,1-1,2.48,3.69,3.69,0,0,1-2.77,1c-.4,0-.88,0-1.28-.06l-.75,0H85.8l-.55,0c-.09,0-.14,0-.14-.07a.07.07,0,0,1,.07-.07,1.35,1.35,0,0,0,.28,0c.18,0,.2-.21.24-.47a18.68,18.68,0,0,0,0-1.91Zm.83,1c0,.93,0,1.75,0,1.92a1.69,1.69,0,0,0,.1.63c.12.17.44.35,1.52.35a3.1,3.1,0,0,0,2.14-.79,3.36,3.36,0,0,0-.15-4.31,3.78,3.78,0,0,0-3-1,2,2,0,0,0-.55.07.15.15,0,0,0-.11.17Z"/><path d="M97.48,64c0-1.62,0-1.91,0-2.24s-.1-.52-.45-.59a2,2,0,0,0-.35,0s-.08,0-.08-.06,0-.08.17-.08h.74l.43,0h2.37a2.84,2.84,0,0,0,.45,0c.05,0,.09-.05.14-.05s.05,0,.05.09-.05.2-.09.49c0,.1,0,.56,0,.68s0,.12-.07.12-.08-.06-.08-.14a1,1,0,0,0-.07-.37c-.07-.17-.17-.29-.73-.35-.18,0-1.31,0-1.42,0s-.07,0-.07.11v2.86c0,.07,0,.11.07.11s1.41,0,1.65,0,.39,0,.48-.14.12-.14.16-.14.05,0,.05.09-.05.24-.08.58,0,.59,0,.66,0,.2-.08.2-.07,0-.07-.09a1.14,1.14,0,0,0,0-.35c0-.14-.14-.32-.54-.36s-1.31,0-1.48,0-.08,0-.08.07v.91c0,.36,0,1.56,0,1.78,0,.72.19.85,1.21.85a3,3,0,0,0,1-.11c.27-.12.4-.33.47-.75,0-.12,0-.16.09-.16s.07.09.07.16-.09.79-.14,1-.16.28-.56.28c-.78,0-1.35,0-1.75,0l-.81,0H97.5l-.6,0c-.11,0-.17,0-.17-.08s0-.06.09-.06a1.65,1.65,0,0,0,.31,0c.21,0,.26-.27.3-.57s0-1.26,0-2.26Z"/><path d="M103.44,64.67c0-1.37,0-1.61,0-1.89s-.08-.45-.38-.49l-.31,0a.09.09,0,0,1-.07-.08s0-.07.14-.07l1.06,0,1.23,0c.91,0,2.58-.08,3.66,1a3.07,3.07,0,0,1,.89,2.24,3.57,3.57,0,0,1-1,2.48,3.71,3.71,0,0,1-2.78,1c-.39,0-.88,0-1.27-.06l-.75,0h-.37l-.55,0c-.1,0-.15,0-.15-.07a.07.07,0,0,1,.08-.07,1.45,1.45,0,0,0,.28,0c.17,0,.19-.21.23-.47a15.58,15.58,0,0,0,.06-1.91Zm.83,1c0,.93,0,1.75,0,1.92a1.69,1.69,0,0,0,.1.63c.12.17.44.35,1.52.35a3.08,3.08,0,0,0,2.13-.79,3,3,0,0,0,.72-2.1,3.07,3.07,0,0,0-.86-2.21,3.78,3.78,0,0,0-3-1,1.94,1.94,0,0,0-.55.07.15.15,0,0,0-.11.17Z"/><path d="M111.23,64.67c0-1.37,0-1.61,0-1.89s-.07-.45-.37-.49l-.31,0a.09.09,0,0,1-.07-.08s0-.07.14-.07l1,0,.92,0c.11,0,.16,0,.16.07a.09.09,0,0,1-.08.08,1.06,1.06,0,0,0-.23,0c-.24,0-.29.2-.31.49s0,.52,0,1.89v1.24a2.61,2.61,0,0,0,.67,2.16,1.79,1.79,0,0,0,1.36.47,1.85,1.85,0,0,0,1.41-.62,3.22,3.22,0,0,0,.52-2.14V64.67c0-1.37,0-1.61,0-1.89s-.06-.45-.36-.49l-.32,0a.08.08,0,0,1-.07-.08s0-.07.15-.07l1,0,.77,0c.1,0,.15,0,.15.07a.08.08,0,0,1-.08.08l-.23,0c-.24.05-.3.2-.32.49s0,.52,0,1.89v1a3.37,3.37,0,0,1-.85,2.64,2.77,2.77,0,0,1-1.91.65A2.5,2.5,0,0,1,111.23,66Z"/><path d="M119.22,68a3.3,3.3,0,0,1-1.11-2.61,3.5,3.5,0,0,1,1-2.41,3.76,3.76,0,0,1,2.78-.94,9.28,9.28,0,0,1,1.33.1,6.78,6.78,0,0,0,.93.14c.1,0,.12,0,.12.09s0,.18,0,.5,0,.78,0,.9-.06.19-.11.19-.07-.07-.07-.19a1.14,1.14,0,0,0-.39-.88,2.94,2.94,0,0,0-1.79-.49,2.8,2.8,0,0,0-2,.61,2.88,2.88,0,0,0-.82,2.31,3.19,3.19,0,0,0,3.28,3.19,1.94,1.94,0,0,0,1.51-.41,1.6,1.6,0,0,0,.35-.74c0-.09,0-.12.1-.12s.08.06.08.12a10.13,10.13,0,0,1-.22,1.13c0,.17-.07.2-.23.26a5.24,5.24,0,0,1-1.65.2A4.28,4.28,0,0,1,119.22,68Z"/><path d="M127.75,62.3c.12-.29.16-.34.22-.34s.12.12.22.32c.16.37,1.63,4,2.19,5.35.33.79.58.9.78,1a1.24,1.24,0,0,0,.36.05s.11,0,.11.07-.1.07-.21.07-.8,0-1.44,0c-.17,0-.32,0-.32-.06s0,0,.06-.06a.17.17,0,0,0,.09-.24l-.82-2s0-.06-.09-.06h-2.1a.11.11,0,0,0-.1.08l-.52,1.41a1.86,1.86,0,0,0-.13.59c0,.18.16.24.31.24h.08c.08,0,.1,0,.1.07s-.05.07-.14.07l-.82,0c-.09,0-.55,0-.92,0-.11,0-.18,0-.18-.07a.08.08,0,0,1,.09-.07l.27,0c.41,0,.59-.37.76-.81Zm1,3.67s0,0,0-.06l-.9-2.42c-.06-.13-.11-.13-.16,0l-.85,2.42s0,.06,0,.06Z"/><path d="M134,66.23c0,.85,0,1.55,0,1.91s.07.43.35.47l.42,0a.06.06,0,0,1,.07.07s0,.07-.15.07c-.49,0-1.08,0-1.13,0l-.94,0c-.11,0-.15,0-.15-.07s0-.06.08-.06a1.36,1.36,0,0,0,.27,0c.18,0,.23-.22.27-.48s0-1.06,0-1.91v-3.7l-1.32,0c-.57,0-.79.07-.92.28a1.11,1.11,0,0,0-.15.28c0,.07-.05.08-.09.08a.07.07,0,0,1-.06-.07c0-.1.17-.88.19-1s.06-.16.1-.16a2.94,2.94,0,0,0,.4.1c.26,0,.61,0,.72,0h3.44a4.88,4.88,0,0,0,.66,0l.25,0c.05,0,.05,0,.05.1,0,.27,0,.91,0,1s0,.11-.08.11-.06,0-.07-.15V63c0-.26-.23-.46-1.1-.48l-1.14,0Z"/><path d="M139.06,66.23c0,.85,0,1.55,0,1.91s.06.43.33.47l.42,0a.07.07,0,0,1,.07.07s0,.07-.15.07c-.5,0-1.1,0-1.14,0l-.9,0c-.09,0-.15,0-.15-.07a.08.08,0,0,1,.08-.07,1.45,1.45,0,0,0,.28,0c.17,0,.21-.21.24-.47s0-1.06,0-1.91V64.67c0-1.37,0-1.61,0-1.89s-.1-.44-.29-.48l-.28,0a.09.09,0,0,1-.08-.08s.05-.07.15-.07l.92,0,.92,0c.1,0,.14,0,.14.07a.09.09,0,0,1-.07.08,1.06,1.06,0,0,0-.23,0c-.25.05-.3.17-.32.49s0,.52,0,1.89Z"/><path d="M144.57,62a3.3,3.3,0,0,1,3.61,3.31,3.53,3.53,0,0,1-3.66,3.6A3.39,3.39,0,0,1,141,65.44,3.49,3.49,0,0,1,144.57,62Zm.21,6.54c.81,0,2.47-.43,2.47-3,0-2.12-1.29-3.23-2.73-3.23s-2.63,1-2.63,2.87S143.13,68.54,144.78,68.54Z"/><path d="M150.33,67.59c0,.73.11.94.36,1a2.17,2.17,0,0,0,.45.05.07.07,0,0,1,.08.07s-.07.07-.17.07c-.52,0-.88,0-1,0s-.47,0-.89,0c-.09,0-.14,0-.14-.07a.07.07,0,0,1,.07-.07,1.45,1.45,0,0,0,.37-.05c.23-.07.26-.3.26-1.1V62.44c0-.35.06-.44.13-.44s.26.17.35.27,1.47,1.55,2.89,3c.9.93,1.87,2,2.15,2.27l-.09-4.42c0-.57-.06-.77-.34-.82a3.15,3.15,0,0,0-.45,0c-.06,0-.07-.05-.07-.09s.07-.06.18-.06l1,0,.78,0c.09,0,.17,0,.17.06a.11.11,0,0,1-.11.09l-.22,0c-.3.06-.32.24-.32.77l0,5.16c0,.58,0,.64-.07.64s-.19-.08-.7-.54c-.09-.09-1.41-1.38-2.37-2.39s-2.09-2.19-2.37-2.5Z"/><path d="M0,52.36a5.22,5.22,0,0,1,5.6-5.31c3.37,0,5.47,2,5.47,5.07a5.35,5.35,0,0,1-5.61,5.55A5.16,5.16,0,0,1,0,52.36Zm9.17.26c0-3-1.74-4.92-4-4.92-1.55,0-3.33.87-3.33,4.24C1.87,54.76,3.43,57,6,57,7,57,9.17,56.53,9.17,52.62Z"/><path d="M14.25,54.57c-.07,0-.08,0-.11.08l-.64,1.56a2.08,2.08,0,0,0-.17.7c0,.21.11.33.47.33H14c.15,0,.18,0,.18.12s-.07.12-.19.12c-.4,0-1,0-1.33,0-.12,0-.76,0-1.38,0-.15,0-.22,0-.22-.12a.11.11,0,0,1,.13-.12l.36,0c.54-.08.74-.43,1-1L15.63,49c.14-.32.23-.46.35-.46s.23.11.36.37c.28.63,2.27,5.3,3,7,.46,1,.8,1.2,1,1.24a4,4,0,0,0,.44,0c.11,0,.17,0,.17.12s-.07.12-.52.12-1.28,0-2.29,0c-.21,0-.35,0-.35-.09s0-.11.15-.12A.19.19,0,0,0,18.1,57l-.92-2.33a.12.12,0,0,0-.13-.08Zm2.55-.64c.05,0,.07,0,.05-.07L15.73,51s0-.11-.06-.11-.05.07-.06.11l-1.16,2.87s0,.08,0,.08Z"/><path d="M23.83,52.62h.05c.41-.44,2.14-2.14,2.5-2.54s.59-.65.59-.85a.21.21,0,0,0-.16-.23c-.11,0-.16-.06-.16-.12s.06-.11.19-.11l1.23,0,1.39,0c.13,0,.21,0,.21.11s-.07.12-.18.12a2.37,2.37,0,0,0-.69.13,3.61,3.61,0,0,0-1.26.86c-.38.35-2.15,2-2.52,2.45.42.54,2.76,3,3.23,3.42a5.79,5.79,0,0,0,1.62,1.23,1.72,1.72,0,0,0,.73.15c.1,0,.17,0,.17.12s-.07.12-.29.12h-1a6.8,6.8,0,0,1-.83,0,2.41,2.41,0,0,1-1.54-.74c-.52-.45-2.81-3.1-3.07-3.46l-.12-.16h-.05v1c0,1.06,0,2,0,2.47,0,.33.14.54.44.6s.43,0,.58,0,.16.06.16.12-.09.12-.23.12c-.66,0-1.51,0-1.81,0s-1,0-1.51,0c-.15,0-.23,0-.23-.12s0-.12.19-.12a2.21,2.21,0,0,0,.42,0c.25-.06.31-.27.36-.61.05-.49.05-1.4.05-2.46v-2c0-1.75,0-2.07,0-2.44s-.14-.51-.52-.62a2,2,0,0,0-.47,0c-.13,0-.21,0-.21-.12s.1-.11.27-.11c.63,0,1.39,0,1.67,0l1.53,0c.18,0,.26,0,.26.11s-.07.12-.16.12a1.42,1.42,0,0,0-.34,0c-.33.05-.42.22-.45.62s0,.69,0,2.44Z"/><path d="M35.83,51.17c0-2.06,0-2.44,0-2.88s-.13-.67-.58-.77a2.6,2.6,0,0,0-.53,0c-.15,0-.23,0-.23-.12s.09-.12.3-.12c.72,0,1.57,0,1.85,0l1.91,0a4.35,4.35,0,0,1,2.5.58,2.35,2.35,0,0,1,.92,1.86c0,1-.42,1.92-1.79,3,1.21,1.52,2.14,2.73,2.94,3.57a2.71,2.71,0,0,0,1.52.92,3.08,3.08,0,0,0,.38,0c.11,0,.16,0,.16.11s-.1.13-.26.13H43.61a2.74,2.74,0,0,1-1.45-.26,6.35,6.35,0,0,1-1.86-2c-.54-.74-1.17-1.66-1.34-1.87a.29.29,0,0,0-.25-.09l-1.17,0a.1.1,0,0,0-.11.11v.19c0,1.26,0,2.33.06,2.9,0,.39.13.69.53.74a5.72,5.72,0,0,0,.67.06c.1,0,.16,0,.16.11s-.1.13-.27.13c-.79,0-1.79,0-2,0s-1.11,0-1.66,0c-.17,0-.27,0-.27-.13s.06-.11.22-.11a2,2,0,0,0,.49-.06c.27,0,.34-.35.39-.74.07-.57.07-1.64.07-2.89Zm1.6,1.07c0,.15,0,.2.12.24a3.38,3.38,0,0,0,1,.14,1.38,1.38,0,0,0,1-.23,2.4,2.4,0,0,0,.8-2,2.17,2.17,0,0,0-2.07-2.48,2.91,2.91,0,0,0-.72.06c-.1,0-.12.08-.12.19Z"/><path d="M45.76,52.1c0-1.75,0-2.07,0-2.44s-.15-.53-.4-.61a1.61,1.61,0,0,0-.44,0c-.12,0-.19,0-.19-.14s.1-.09.29-.09l1.6,0,1.53,0c.15,0,.24,0,.24.09s-.07.14-.19.14a1.45,1.45,0,0,0-.35,0c-.33.05-.42.22-.45.62s0,.69,0,2.44v2c0,1.11,0,2,.06,2.52,0,.32.12.49.47.55.17,0,.44,0,.61,0s.19.06.19.12-.09.12-.23.12c-.78,0-1.6,0-1.92,0s-1.09,0-1.56,0c-.15,0-.23,0-.23-.12s0-.12.19-.12a2.21,2.21,0,0,0,.42,0c.24-.06.31-.22.35-.56s.06-1.4.06-2.51Z"/><path d="M51.24,52.1c0-1.75,0-2.07,0-2.44s-.14-.51-.52-.62a2,2,0,0,0-.47,0c-.12,0-.2,0-.2-.12s.09-.11.27-.11c.62,0,1.38,0,1.72,0s1.22,0,1.94,0c1.49,0,3.49,0,4.79,1.31A4,4,0,0,1,59.89,53a4.49,4.49,0,0,1-1.3,3.21,5.6,5.6,0,0,1-4,1.36c-.43,0-1,0-1.42-.07s-.91-.07-1.21-.07h-.68l-.82,0c-.15,0-.23,0-.23-.12s0-.12.19-.12a2.3,2.3,0,0,0,.42,0c.24-.06.31-.27.35-.61.05-.49.05-1.4.05-2.46Zm1.6,1.27c0,1.22,0,2.11,0,2.34a2.13,2.13,0,0,0,.13.81c.15.22.63.46,1.56.46a3.71,3.71,0,0,0,2.6-.79,3.48,3.48,0,0,0,1-2.86,3.74,3.74,0,0,0-1.11-2.87,4.83,4.83,0,0,0-3.33-1.09,2.4,2.4,0,0,0-.74.08.21.21,0,0,0-.15.23c0,.39,0,1.34,0,2.25Z"/><path d="M69.75,56.71c0,.31,0,.32-.15.41a7.25,7.25,0,0,1-2.92.51c-2.92,0-5.51-1.33-5.51-4.51a4.27,4.27,0,0,1,2.09-3.77,6,6,0,0,1,3.21-.74,12.86,12.86,0,0,1,2.11.19c.25,0,.67.1,1,.12s.16,0,.16.13a16.06,16.06,0,0,0-.08,1.9c0,.18-.07.26-.16.26s-.11-.06-.12-.15a1.58,1.58,0,0,0-.41-1,3.68,3.68,0,0,0-2.59-.88,3.31,3.31,0,0,0-2.3.68,3.35,3.35,0,0,0-1.1,2.8A4,4,0,0,0,67.08,57a2,2,0,0,0,.84-.12.39.39,0,0,0,.23-.41V55.41c0-.57,0-1,0-1.36s-.13-.51-.51-.62a2,2,0,0,0-.46,0c-.11,0-.19-.06-.19-.12s.09-.11.26-.11c.62,0,1.47,0,1.83,0l1.39,0c.16,0,.25,0,.25.11a.14.14,0,0,1-.15.12,1.47,1.47,0,0,0-.33,0c-.32,0-.45.22-.46.62s0,.82,0,1.39Z"/><path d="M73.05,52.1c0-1.75,0-2.07,0-2.44s-.14-.51-.52-.62a2,2,0,0,0-.47,0c-.13,0-.21,0-.21-.12s.1-.11.28-.11c.62,0,1.38,0,1.72,0s3,0,3.25,0l.5-.07a.82.82,0,0,1,.19-.06c.07,0,.08.06.08.11a5.15,5.15,0,0,0-.1.75c0,.12,0,.62-.06.76s0,.19-.14.19-.09-.06-.09-.15a1.18,1.18,0,0,0-.08-.42c-.1-.21-.19-.37-.79-.42-.2,0-1.63-.06-1.87-.06,0,0-.08,0-.08.11v2.85c0,.06,0,.12.08.12.27,0,1.82,0,2.09,0a1,1,0,0,0,.57-.18c.09-.08.13-.14.19-.14s.09.05.09.12,0,.25-.09.84c0,.23-.06.69-.06.77s0,.26-.12.26-.11,0-.11-.1a3.47,3.47,0,0,0,0-.42c-.07-.23-.22-.4-.66-.44-.22,0-1.58-.06-1.87-.06-.06,0-.07.06-.07.12v.92c0,.4,0,1.37,0,1.71,0,.79.39,1,1.61,1a3.4,3.4,0,0,0,1.13-.14c.29-.14.43-.38.51-.86,0-.12.06-.18.14-.18s.1.15.1.28A7.6,7.6,0,0,1,78,57.21c-.08.3-.19.3-.64.3-.89,0-1.61,0-2.19,0l-1.38,0h-.68l-.83,0c-.14,0-.23,0-.23-.12s0-.12.19-.12a2.12,2.12,0,0,0,.42,0c.25-.06.32-.27.36-.61,0-.49,0-1.4,0-2.46Z"/><path d="M85.13,51.17c0-2.06,0-2.44,0-2.88s-.17-.69-.47-.76a1.86,1.86,0,0,0-.48-.05c-.14,0-.22,0-.22-.13s.11-.11.32-.11c.52,0,1.37,0,1.77,0s1.14,0,1.65,0c.18,0,.28,0,.28.11s-.08.13-.21.13a2,2,0,0,0-.41,0c-.36.07-.47.3-.5.77s0,.82,0,2.88v2.38c0,1.32,0,2.39.06,3,0,.36.13.61.54.66a5.2,5.2,0,0,0,.69.06c.15,0,.22,0,.22.11s-.11.13-.26.13c-.89,0-1.75,0-2.11,0s-1.17,0-1.71,0c-.18,0-.27,0-.27-.13s0-.11.21-.11a2,2,0,0,0,.49-.06c.27,0,.35-.28.39-.67.07-.57.07-1.64.07-3Z"/><path d="M91.43,55.91c0,.89.18,1.16.41,1.25a2.25,2.25,0,0,0,.62.08c.14,0,.2,0,.2.12s-.1.12-.27.12c-.77,0-1.32,0-1.54,0s-.68,0-1.29,0c-.16,0-.27,0-.27-.12s.08-.12.19-.12a2.48,2.48,0,0,0,.54-.06c.31-.08.35-.39.37-1.39L90.5,49c0-.23.08-.39.2-.39s.31.17.51.37,1.94,2,3.68,3.68c.81.8,2.39,2.42,2.57,2.58h.05l-.12-5.12c0-.7-.12-.91-.4-1a2,2,0,0,0-.63-.07c-.15,0-.19-.06-.19-.12s.12-.11.3-.11c.62,0,1.26,0,1.52,0s.58,0,1.16,0c.17,0,.27,0,.27.11s-.06.12-.2.12a1.17,1.17,0,0,0-.36,0c-.33.09-.42.3-.44,1l-.13,7.26c0,.26-.1.37-.19.37a.71.71,0,0,1-.49-.25c-.75-.69-2.24-2.11-3.48-3.32s-2.56-2.64-2.79-2.84h0Z"/><path d="M101.4,57.33c-.19-.08-.23-.13-.23-.39,0-.62,0-1.34.07-1.53s.05-.3.15-.3.12.11.12.19a2.13,2.13,0,0,0,.11.6A1.83,1.83,0,0,0,103.51,57a1.5,1.5,0,0,0,1.66-1.46c0-.5-.13-1-1.18-1.63l-.69-.4c-1.41-.83-1.87-1.6-1.87-2.62,0-1.41,1.35-2.31,3-2.31a6.64,6.64,0,0,1,1.7.19c.11,0,.16.06.16.14s0,.48,0,1.39q0,.36-.15.36c-.08,0-.12-.07-.12-.2a1.35,1.35,0,0,0-.31-.76,1.61,1.61,0,0,0-1.33-.54c-.85,0-1.63.45-1.63,1.23,0,.52.19.92,1.26,1.52l.49.27c1.57.87,2.06,1.75,2.06,2.79a2.45,2.45,0,0,1-1.19,2.16,3.53,3.53,0,0,1-2,.47A5.07,5.07,0,0,1,101.4,57.33Z"/><path d="M110.92,49.47l-1.77,0c-.69,0-1,.1-1.15.36a1.26,1.26,0,0,0-.21.39c0,.09-.05.15-.13.15s-.11-.07-.11-.19.23-1.3.26-1.4.06-.21.13-.21.22.09.52.13a11.28,11.28,0,0,0,1.19.06h4.84a4.77,4.77,0,0,0,.81-.06l.32-.05c.09,0,.1.06.1.24s0,1.1,0,1.4c0,.12,0,.19-.11.19s-.12-.06-.13-.23l0-.13c0-.29-.33-.65-1.4-.66l-1.51,0v4.66c0,1.06,0,2,.07,2.47,0,.33.11.54.46.6a5.86,5.86,0,0,0,.61,0c.13,0,.19.06.19.12s-.1.12-.23.12c-.79,0-1.59,0-1.93,0s-1.08,0-1.55,0c-.15,0-.23,0-.23-.12s0-.12.19-.12a2.21,2.21,0,0,0,.42,0c.24-.06.31-.27.35-.61,0-.49,0-1.4,0-2.46Z"/><path d="M117.88,52.1c0-1.75,0-2.07,0-2.44s-.15-.53-.41-.61a1.49,1.49,0,0,0-.43,0c-.12,0-.19,0-.19-.14s.1-.09.29-.09l1.59,0,1.54,0c.15,0,.24,0,.24.09s-.07.14-.19.14a1.45,1.45,0,0,0-.35,0c-.33.05-.42.22-.45.62s0,.69,0,2.44v2c0,1.11,0,2,.06,2.52,0,.32.12.49.47.55a6,6,0,0,0,.61,0c.14,0,.19.06.19.12s-.09.12-.23.12c-.79,0-1.6,0-1.92,0s-1.09,0-1.56,0c-.15,0-.23,0-.23-.12s0-.12.19-.12a2.3,2.3,0,0,0,.42,0c.24-.06.31-.22.35-.56s0-1.4,0-2.51Z"/><path d="M125,49.47l-1.78,0c-.69,0-1,.1-1.15.36a1.18,1.18,0,0,0-.2.39c0,.09-.06.15-.14.15s-.11-.07-.11-.19.23-1.3.26-1.4.07-.21.13-.21.22.09.52.13a11.28,11.28,0,0,0,1.19.06h4.84a4.67,4.67,0,0,0,.81-.06l.33-.05c.08,0,.09.06.09.24s0,1.1,0,1.4c0,.12,0,.19-.1.19s-.12-.06-.14-.23v-.13c0-.29-.34-.65-1.41-.66l-1.51,0v4.66c0,1.06,0,2,.07,2.47,0,.33.11.54.46.6.17,0,.44,0,.61,0s.19.06.19.12-.09.12-.23.12c-.78,0-1.58,0-1.92,0s-1.09,0-1.56,0c-.15,0-.23,0-.23-.12s0-.12.19-.12a2.21,2.21,0,0,0,.42,0c.24-.06.31-.27.35-.61.06-.49.06-1.4.06-2.46Z"/><path d="M131.4,52.1c0-1.75,0-2.07,0-2.44s-.14-.51-.52-.62a1.91,1.91,0,0,0-.46,0c-.13,0-.2,0-.2-.12s.08-.11.26-.11c.63,0,1.43,0,1.79,0l1.53,0c.17,0,.25,0,.25.11s-.06.12-.19.12a1.5,1.5,0,0,0-.35,0c-.31.05-.4.22-.43.62s0,.69,0,2.44v1.61c0,1.68.33,2.33.91,2.8a2.3,2.3,0,0,0,1.5.46,2.26,2.26,0,0,0,1.6-.61c.67-.63.69-1.63.69-2.81V52.1c0-1.75,0-2.07,0-2.44s-.13-.51-.51-.62a1.8,1.8,0,0,0-.43,0c-.13,0-.2,0-.2-.12s.08-.11.24-.11c.61,0,1.41,0,1.43,0l1.39,0c.16,0,.24,0,.24.11s-.06.12-.2.12a1.5,1.5,0,0,0-.35,0c-.33.05-.41.22-.43.62s0,.69,0,2.44v1.23a4.26,4.26,0,0,1-1.14,3.47,3.7,3.7,0,0,1-2.52.83,4.11,4.11,0,0,1-2.72-.79,3.67,3.67,0,0,1-1.09-3Z"/><path d="M143.77,49.47l-1.77,0c-.7,0-1,.1-1.16.36a1.42,1.42,0,0,0-.2.39c0,.09,0,.15-.14.15s-.1-.07-.1-.19.23-1.3.25-1.4.07-.21.14-.21.22.09.51.13a11.47,11.47,0,0,0,1.2.06h4.83a4.91,4.91,0,0,0,.82-.06l.32-.05c.08,0,.1.06.1.24s0,1.1,0,1.4c0,.12,0,.19-.11.19s-.12-.06-.13-.23l0-.13c0-.29-.34-.65-1.41-.66l-1.5,0v4.66c0,1.06,0,2,.07,2.47,0,.33.1.54.46.6a5.86,5.86,0,0,0,.61,0c.13,0,.19.06.19.12s-.1.12-.23.12c-.79,0-1.59,0-1.93,0s-1.08,0-1.56,0c-.15,0-.23,0-.23-.12s0-.12.19-.12a2,2,0,0,0,.42,0c.25-.06.31-.27.36-.61.05-.49.05-1.4.05-2.46Z"/><path d="M150.73,52.1c0-1.75,0-2.07,0-2.44s-.14-.51-.52-.62a2,2,0,0,0-.47,0c-.12,0-.2,0-.2-.12s.09-.11.27-.11c.62,0,1.38,0,1.72,0s3,0,3.25,0,.41-.06.5-.07a1,1,0,0,1,.19-.06c.07,0,.08.06.08.11a4.52,4.52,0,0,0-.09.75c0,.12,0,.62-.07.76s0,.19-.14.19-.09-.06-.09-.15a1,1,0,0,0-.08-.42c-.1-.21-.19-.37-.79-.42-.2,0-1.62-.06-1.87-.06,0,0-.08,0-.08.11v2.85c0,.06,0,.12.08.12.27,0,1.82,0,2.09,0a1,1,0,0,0,.57-.18c.09-.08.13-.14.19-.14s.09.05.09.12,0,.25-.09.84c0,.23-.06.69-.06.77s0,.26-.12.26-.11,0-.11-.1a3.47,3.47,0,0,0,0-.42c-.06-.23-.21-.4-.66-.44-.22,0-1.57-.06-1.87-.06-.06,0-.07.06-.07.12v.92c0,.4,0,1.37,0,1.71,0,.79.39,1,1.61,1a3.37,3.37,0,0,0,1.13-.14c.3-.14.43-.38.51-.86,0-.12.06-.18.14-.18s.11.15.11.28a8.82,8.82,0,0,1-.16,1.27c-.09.3-.2.3-.64.3-.9,0-1.61,0-2.2,0l-1.38,0h-.68l-.82,0c-.15,0-.23,0-.23-.12s0-.12.19-.12a2.3,2.3,0,0,0,.42,0c.24-.06.31-.27.35-.61,0-.49,0-1.4,0-2.46Z"/><polygon points="77.68 0 67.74 0 76.72 30.92 77.68 0" fill="#ae132a"/><polygon points="69.25 36.35 55.57 27.06 55.57 32.38 69.25 36.35" fill="#ae132a"/><polygon points="72.28 32.68 55.63 0 55.57 0 55.57 15.96 72.28 32.68" fill="#ae132a"/><polygon points="74.39 31.52 67.34 0 55.75 0 74.39 31.52" fill="#ae132a"/><polygon points="68.5 38.64 55.57 33.98 55.57 38.23 68.5 38.64" fill="#ae132a"/><polygon points="70.53 34.32 55.57 17.36 55.57 25.47 70.53 34.32" fill="#ae132a"/><polygon points="83.55 32.68 99.98 16.25 99.98 0.45 83.55 32.68" fill="#ae132a"/><polygon points="81.45 31.52 99.98 0.17 99.98 0 88.5 0 81.45 31.52" fill="#ae132a"/><polygon points="78.15 0 79.12 30.92 88.1 0 78.15 0" fill="#ae132a"/><polygon points="85.3 34.32 99.98 25.64 99.98 17.68 85.3 34.32" fill="#ae132a"/><polygon points="86.59 36.35 99.98 32.46 99.98 27.26 86.59 36.35" fill="#ae132a"/><polygon points="99.98 34.09 87.33 38.64 99.98 38.24 99.98 34.09" fill="#ae132a"/><path d="M11.56,79.85c.21-1.21-.49-1.66-1.58-1.66s-1.94.28-2.1,1.17c-.28,1.56,4.13.82,3.71,2.85-.16.75-.74,1.47-2.6,1.47s-2.41-.89-2.18-2.1h.4c-.17,1,.17,1.74,1.73,1.74s2.11-.56,2.26-1.16c.36-1.6-4.06-.83-3.72-2.85.18-1,1.13-1.47,2.5-1.47s2.25.59,2,2Z"/><path d="M16.64,83.64l.56-2.58c.26-1.22.16-1.78-1.21-1.78s-1.79.57-2.06,1.8l-.55,2.56H13l1.35-6.36h.4l-.56,2.62a2,2,0,0,1,2-1c1.61,0,1.74.8,1.44,2.18L17,83.64Z"/><path d="M23,83.64h-.26l.17-1.1a2.24,2.24,0,0,1-2.14,1.14c-1.7,0-1.87-1.05-1.59-2.38s.88-2.36,2.54-2.36c1.06,0,1.52.36,1.69,1.17L23.69,79h.25Zm-1.24-4.36c-1.44,0-1.93.84-2.19,2.06s-.12,2,1.32,2,2-.87,2.22-2S23.18,79.28,21.73,79.28Z"/><path d="M25.76,79H26l-.16,1.1A2.21,2.21,0,0,1,28,78.94c1.66,0,1.86,1.06,1.58,2.39s-.89,2.35-2.54,2.35c-1,0-1.47-.3-1.65-1.06l-.59,2.81h-.4Zm2.13.29c-1.49,0-2,.81-2.23,2s-.18,2,1.3,2,1.94-.85,2.2-2S29.3,79.28,27.89,79.28Z"/><path d="M31.18,83.64h-.4l1-4.65h.4Zm.91-5.15c-.27,0-.42-.08-.36-.37s.21-.34.48-.34.41.07.36.37S32.35,78.49,32.09,78.49Z"/><path d="M36.74,83.64l.54-2.53c.25-1.17.16-1.83-1.21-1.83S34.23,80,34,81.15l-.53,2.49h-.39L34,79h.24l-.13,1a2.11,2.11,0,0,1,2.07-1.08c1.63,0,1.73.89,1.45,2.23l-.51,2.47Z"/><path d="M43,83.64a2.16,2.16,0,0,1-2.45,1.84c-1.57,0-1.91-.64-1.74-1.6h.41c-.14.78,0,1.28,1.38,1.28a1.76,1.76,0,0,0,2-1.52l.21-1a2.07,2.07,0,0,1-2,1c-1.69,0-1.89-1.05-1.61-2.38s.89-2.36,2.52-2.36c1.07,0,1.56.39,1.68,1.17L43.74,79H44Zm-1.21-4.36c-1.44,0-1.94.83-2.19,2s-.12,2,1.31,2,2-.88,2.21-2S43.23,79.28,41.78,79.28Z"/><path d="M51.1,79.33H49.41l-.63,3c-.17.8.15,1.08,1.47,1l-.08.34c-1.48.07-2-.3-1.78-1.41L49,79.33h-.55l0-.28.58-.06.24-1.11h.39L49.48,79h1.69Z"/><path d="M55.33,83.64l.56-2.58c.26-1.22.16-1.78-1.21-1.78s-1.79.57-2.06,1.8l-.55,2.56h-.4L53,77.28h.4l-.56,2.62a2,2,0,0,1,2-1c1.61,0,1.74.8,1.45,2.18l-.54,2.52Z"/><path d="M58.22,81.51c-.18,1.08.14,1.85,1.44,1.85a1.86,1.86,0,0,0,1.92-1.18H62a2.23,2.23,0,0,1-2.32,1.5c-1.83,0-2.1-1.16-1.84-2.38a2.6,2.6,0,0,1,2.69-2.36c1.64,0,1.89,1.17,1.59,2.57Zm2.32-2.24a2.15,2.15,0,0,0-2.25,1.92H61.8C62,80.18,61.75,79.27,60.54,79.27Z"/><path d="M71.3,78.23H68l-.5,2.3h3.11l-.08.33h-3.1l-.59,2.78h-.41l1.23-5.76h3.71Z"/><path d="M75.64,83.64h-.25l.15-1a2.06,2.06,0,0,1-2,1.09c-1.63,0-1.79-.87-1.51-2.22L72.54,79h.39l-.54,2.53c-.24,1.18-.15,1.83,1.21,1.83s1.84-.68,2.1-1.87L76.22,79h.4Z"/><path d="M80.71,79.33H79l-.63,3c-.17.8.15,1.08,1.47,1l-.07.34c-1.49.07-2-.3-1.79-1.41l.62-2.92h-.55l.05-.28L78.7,79l.24-1.11h.39L79.09,79h1.69Z"/><path d="M85.33,83.64h-.24l.14-1a2,2,0,0,1-2,1.09c-1.64,0-1.8-.87-1.51-2.22L82.23,79h.39l-.54,2.53c-.24,1.18-.15,1.83,1.21,1.83s1.84-.68,2.1-1.87L85.91,79h.41Z"/><path d="M90.24,79.3c-1.45,0-1.9.69-2.15,1.86l-.53,2.48h-.39l1-4.65h.24l-.13,1a2.13,2.13,0,0,1,2.07-1.08Z"/><path d="M91.09,81.51c-.18,1.08.14,1.85,1.44,1.85a1.89,1.89,0,0,0,1.93-1.18h.42a2.23,2.23,0,0,1-2.32,1.5c-1.83,0-2.1-1.16-1.83-2.38a2.58,2.58,0,0,1,2.68-2.36c1.64,0,1.89,1.17,1.59,2.57Zm2.32-2.24a2.13,2.13,0,0,0-2.24,1.92h3.5C94.88,80.18,94.63,79.27,93.41,79.27Z"/><path d="M101.29,83.68c-1.81,0-2-1.18-1.76-2.39a2.58,2.58,0,0,1,2.7-2.35c1.8,0,2,1.19,1.77,2.39A2.57,2.57,0,0,1,101.29,83.68Zm.92-4.39a2.22,2.22,0,0,0-2.3,2c-.23,1.08-.08,2,1.39,2a2.21,2.21,0,0,0,2.32-2C103.84,80.22,103.68,79.29,102.21,79.29Z"/><path d="M106.2,79.32h-.6l.06-.27.61-.06.09-.4c.22-1.07.88-1.44,2.36-1.37l-.06.33c-1.26-.06-1.74.24-1.92,1.08l-.07.36h1.68l-.06.33h-1.7l-1.08,5.11c-.17.79-.62,1.12-1.67,1l.07-.33c.8.09,1.1-.16,1.21-.73Z"/><path d="M116.88,79.85c.21-1.21-.5-1.66-1.58-1.66s-1.94.28-2.11,1.17c-.27,1.56,4.14.82,3.72,2.85-.17.75-.75,1.47-2.61,1.47s-2.4-.89-2.18-2.1h.41c-.18,1,.16,1.74,1.72,1.74s2.12-.56,2.26-1.16c.37-1.6-4.05-.83-3.72-2.85.18-1,1.13-1.47,2.51-1.47s2.24.59,2,2Z"/><path d="M122.66,80.82c.16-1-.23-1.54-1.32-1.54a2.25,2.25,0,0,0-2.29,2c-.23,1.09,0,2,1.4,2a1.85,1.85,0,0,0,2-1.51h.4a2.22,2.22,0,0,1-2.4,1.85c-1.8,0-2-1.17-1.79-2.38a2.61,2.61,0,0,1,2.69-2.36c1.37,0,1.93.7,1.71,1.88Z"/><path d="M124.55,83.64h-.41l1-4.65h.41Zm.91-5.15c-.27,0-.43-.08-.36-.37s.2-.34.47-.34.42.07.36.37S125.72,78.49,125.46,78.49Z"/><path d="M127.11,81.51c-.18,1.08.14,1.85,1.44,1.85a1.86,1.86,0,0,0,1.92-1.18h.42a2.21,2.21,0,0,1-2.31,1.5c-1.83,0-2.1-1.16-1.84-2.38a2.59,2.59,0,0,1,2.69-2.36c1.63,0,1.89,1.17,1.59,2.57Zm2.32-2.24a2.14,2.14,0,0,0-2.25,1.92h3.51C130.89,80.18,130.64,79.27,129.43,79.27Z"/><path d="M135.9,83.64l.54-2.53c.25-1.17.16-1.83-1.21-1.83s-1.84.67-2.1,1.87l-.53,2.49h-.39l1-4.65h.24l-.13,1a2.11,2.11,0,0,1,2.07-1.08c1.63,0,1.73.89,1.45,2.23l-.51,2.47Z"/><path d="M142.42,80.82c.16-1-.23-1.54-1.31-1.54a2.26,2.26,0,0,0-2.3,2c-.23,1.09,0,2,1.41,2a1.85,1.85,0,0,0,2-1.51h.41a2.23,2.23,0,0,1-2.4,1.85c-1.81,0-2.05-1.17-1.8-2.38a2.61,2.61,0,0,1,2.7-2.36c1.36,0,1.92.7,1.7,1.88Z"/><path d="M144.58,81.51c-.18,1.08.14,1.85,1.44,1.85a1.86,1.86,0,0,0,1.92-1.18h.43a2.23,2.23,0,0,1-2.32,1.5c-1.83,0-2.1-1.16-1.84-2.38a2.59,2.59,0,0,1,2.69-2.36c1.64,0,1.89,1.17,1.59,2.57Zm2.32-2.24a2.15,2.15,0,0,0-2.25,1.92h3.51C148.37,80.18,148.11,79.27,146.9,79.27Z"/><rect x="0.24" y="73.16" width="155.66" height="0.36" fill="#ae132a"/></svg>